<?xml version="1.0" standalone="no"?>
<!DOCTYPE svg PUBLIC "-//W3C//DTD SVG 20010904//EN"
 "http://www.w3.org/TR/2001/REC-SVG-20010904/DTD/svg10.dtd">
<svg version="1.0" xmlns="http://www.w3.org/2000/svg"
 width="128.000000pt" height="128.000000pt" viewBox="0 0 128.000000 128.000000"
 preserveAspectRatio="xMidYMid meet">
<metadata>
Created by potrace 1.14, written by Peter Selinger 2001-2017
</metadata>
<g transform="translate(0.000000,128.000000) scale(0.100000,-0.100000)"
fill="#000000" stroke="none">
<path d="M54 1269 c-11 -6 -28 -23 -37 -39 -15 -25 -17 -83 -17 -583 0 -354 4
-565 10 -584 23 -64 9 -63 630 -63 506 0 565 2 590 17 16 9 33 27 39 40 8 16
11 203 11 584 0 620 1 606 -63 629 -40 14 -1134 13 -1163 -1z m627 -309 c1 -8
0 -25 0 -36 -2 -16 5 -23 25 -28 60 -15 114 -83 114 -144 0 -18 -4 -18 -97
-13 -15 1 -23 10 -28 31 -11 49 -84 54 -93 6 -9 -42 8 -63 75 -95 108 -52 148
-103 139 -176 -2 -16 -4 -34 -5 -40 -3 -24 -52 -67 -94 -81 -42 -14 -45 -18
-44 -47 2 -27 -1 -32 -25 -34 -24 -1 -27 2 -30 35 -3 31 -7 37 -37 45 -18 4
-45 15 -58 24 -30 20 -65 87 -61 116 3 19 10 22 56 23 51 1 54 0 67 -32 17
-41 45 -57 79 -44 30 11 42 49 27 79 -7 11 -46 38 -89 58 -99 49 -126 85 -120
161 6 63 39 104 102 125 30 10 41 19 42 35 1 12 2 29 3 37 1 20 51 16 52 -5z"/>
</g>
</svg>
